<svg id="visual" viewBox="0 0 900 600" repeat="no repeat" preserveAspectRatio="none" xmlns="http://www.w3.org/2000/svg" xmlns:xlink="http://www.w3.org/1999/xlink" version="1.1"><rect x="0" y="0" width="900" height="600" fill="#b5c9c0"></rect><path d="M0 224L25 214.5C50 205 100 186 150 170.8C200 155.7 250 144.3 300 148.2C350 152 400 171 450 184.5C500 198 550 206 600 180.5C650 155 700 96 750 90.3C800 84.7 850 132.3 875 156.2L900 180L900 601L875 601C850 601 800 601 750 601C700 601 650 601 600 601C550 601 500 601 450 601C400 601 350 601 300 601C250 601 200 601 150 601C100 601 50 601 25 601L0 601Z" fill="#11435b"></path><path d="M0 242L25 242.3C50 242.7 100 243.3 150 252.5C200 261.7 250 279.3 300 285.8C350 292.3 400 287.7 450 271.8C500 256 550 229 600 217.3C650 205.7 700 209.3 750 200C800 190.7 850 168.3 875 157.2L900 146L900 601L875 601C850 601 800 601 750 601C700 601 650 601 600 601C550 601 500 601 450 601C400 601 350 601 300 601C250 601 200 601 150 601C100 601 50 601 25 601L0 601Z" fill="#446e71"></path><path d="M0 263L25 254.3C50 245.7 100 228.3 150 217.8C200 207.3 250 203.7 300 226C350 248.3 400 296.7 450 298.7C500 300.7 550 256.3 600 258.5C650 260.7 700 309.3 750 313.7C800 318 850 278 875 258L900 238L900 601L875 601C850 601 800 601 750 601C700 601 650 601 600 601C550 601 500 601 450 601C400 601 350 601 300 601C250 601 200 601 150 601C100 601 50 601 25 601L0 601Z" fill="#82978d"></path><path d="M0 303L25 312.2C50 321.3 100 339.7 150 355.7C200 371.7 250 385.3 300 372.3C350 359.3 400 319.7 450 316C500 312.3 550 344.7 600 354.2C650 363.7 700 350.3 750 343.2C800 336 850 335 875 334.5L900 334L900 601L875 601C850 601 800 601 750 601C700 601 650 601 600 601C550 601 500 601 450 601C400 601 350 601 300 601C250 601 200 601 150 601C100 601 50 601 25 601L0 601Z" fill="#82978d"></path><path d="M0 377L25 395C50 413 100 449 150 447C200 445 250 405 300 407.8C350 410.7 400 456.3 450 461.2C500 466 550 430 600 421.5C650 413 700 432 750 445.7C800 459.3 850 467.7 875 471.8L900 476L900 601L875 601C850 601 800 601 750 601C700 601 650 601 600 601C550 601 500 601 450 601C400 601 350 601 300 601C250 601 200 601 150 601C100 601 50 601 25 601L0 601Z" fill="#446e71"></path><path d="M0 525L25 524.3C50 523.7 100 522.3 150 512.2C200 502 250 483 300 470.7C350 458.3 400 452.7 450 450.2C500 447.7 550 448.3 600 455.2C650 462 700 475 750 492.5C800 510 850 532 875 543L900 554L900 601L875 601C850 601 800 601 750 601C700 601 650 601 600 601C550 601 500 601 450 601C400 601 350 601 300 601C250 601 200 601 150 601C100 601 50 601 25 601L0 601Z" fill="#11435b"></path></svg>
