<svg id="visual" viewBox="0 0 960 540" width="1960" height="540" preserveAspectRatio="none" xmlns="http://www.w3.org/2000/svg" xmlns:xlink="http://www.w3.org/1999/xlink" version="1.1"><path d="M0 66L192 82L384 28L576 55L768 28L960 28L960 0L768 0L576 0L384 0L192 0L0 0Z" fill="#b5c9c0"></path><path d="M0 114L192 131L384 87L576 109L768 66L960 55L960 26L768 26L576 53L384 26L192 80L0 64Z" fill="#9fb4aa"></path><path d="M0 168L192 163L384 174L576 141L768 82L960 109L960 53L768 64L576 107L384 85L192 129L0 112Z" fill="#8a9f95"></path><path d="M0 249L192 255L384 217L576 298L768 228L960 303L960 107L768 80L576 139L384 172L192 161L0 166Z" fill="#82978d"></path><path d="M0 276L192 363L384 309L576 428L768 417L960 374L960 301L768 226L576 296L384 215L192 253L0 247Z" fill="#8a9f95"></path><path d="M0 492L192 536L384 509L576 455L768 498L960 476L960 372L768 415L576 426L384 307L192 361L0 274Z" fill="#9fb4aa"></path><path d="M0 541L192 541L384 541L576 541L768 541L960 541L960 474L768 496L576 453L384 507L192 534L0 490Z" fill="#b5c9c0"></path></svg>

