<svg id="visual" viewBox="0 0 960 540" width="960" height="180" preserveAspectRatio="none" xmlns="http://www.w3.org/2000/svg" xmlns:xlink="http://www.w3.org/1999/xlink" version="1.1"><rect x="0" y="0" width="960" height="540" fill="#B5C9C0"></rect><path d="M0 153L96 124L192 171L288 138L384 239L480 227L576 283L672 289L768 238L864 196L960 164L960 541L864 541L768 541L672 541L576 541L480 541L384 541L288 541L192 541L96 541L0 541Z" fill="#dbd5ca"></path><path d="M0 254L96 329L192 267L288 291L384 276L480 163L576 222L672 216L768 227L864 266L960 157L960 541L864 541L768 541L672 541L576 541L480 541L384 541L288 541L192 541L96 541L0 541Z" fill="#ddd7cc"></path><path d="M0 308L96 334L192 227L288 220L384 315L480 347L576 212L672 262L768 361L864 311L960 229L960 541L864 541L768 541L672 541L576 541L480 541L384 541L288 541L192 541L96 541L0 541Z" fill="#ded9ce"></path><path d="M0 269L96 360L192 277L288 353L384 380L480 235L576 375L672 367L768 389L864 258L960 299L960 541L864 541L768 541L672 541L576 541L480 541L384 541L288 541L192 541L96 541L0 541Z" fill="#e0dacf"></path><path d="M0 362L96 316L192 360L288 280L384 367L480 291L576 292L672 377L768 402L864 275L960 288L960 541L864 541L768 541L672 541L576 541L480 541L384 541L288 541L192 541L96 541L0 541Z" fill="#e1dcd1"></path><path d="M0 377L96 419L192 360L288 416L384 366L480 312L576 429L672 376L768 345L864 358L960 407L960 541L864 541L768 541L672 541L576 541L480 541L384 541L288 541L192 541L96 541L0 541Z" fill="#e3ded3"></path><path d="M0 367L96 355L192 415L288 430L384 377L480 367L576 461L672 361L768 422L864 410L960 401L960 541L864 541L768 541L672 541L576 541L480 541L384 541L288 541L192 541L96 541L0 541Z" fill="#e4e0d5"></path><path d="M0 422L96 428L192 396L288 464L384 478L480 475L576 458L672 460L768 455L864 447L960 483L960 541L864 541L768 541L672 541L576 541L480 541L384 541L288 541L192 541L96 541L0 541Z" fill="#e5e2d6"></path><path d="M0 442L96 464L192 485L288 438L384 501L480 483L576 485L672 494L768 437L864 490L960 504L960 541L864 541L768 541L672 541L576 541L480 541L384 541L288 541L192 541L96 541L0 541Z" fill="#e7e4d8"></path><path d="M0 494L96 512L192 518L288 495L384 497L480 490L576 514L672 533L768 518L864 526L960 494L960 541L864 541L768 541L672 541L576 541L480 541L384 541L288 541L192 541L96 541L0 541Z" fill="#e8e6da"></path></svg>
