<svg id="visual" viewBox="0 0 960 540" width="960" height="180" preserveAspectRatio="none" xmlns="http://www.w3.org/2000/svg" xmlns:xlink="http://www.w3.org/1999/xlink" version="1.1"><rect x="0" y="0" width="960" height="540" fill="#B5C9C0"></rect><path d="M0 521L87 292L175 348L262 340L349 398L436 373L524 351L611 374L698 518L785 479L873 420L960 334L960 541L873 541L785 541L698 541L611 541L524 541L436 541L349 541L262 541L175 541L87 541L0 541Z" fill="#dbd5ca"></path><path d="M0 375L87 485L175 483L262 412L349 434L436 527L524 359L611 318L698 453L785 531L873 365L960 385L960 541L873 541L785 541L698 541L611 541L524 541L436 541L349 541L262 541L175 541L87 541L0 541Z" fill="#e4dfd4"></path><path d="M0 450L87 365L175 403L262 404L349 396L436 515L524 492L611 529L698 416L785 400L873 436L960 395L960 541L873 541L785 541L698 541L611 541L524 541L436 541L349 541L262 541L175 541L87 541L0 541Z" fill="#e8e6da"></path><path d="M0 513L87 493L175 441L262 477L349 485L436 442L524 512L611 467L698 496L785 505L873 450L960 440L960 541L873 541L785 541L698 541L611 541L524 541L436 541L349 541L262 541L175 541L87 541L0 541Z" fill="#e4dfd4"></path><path d="M0 474L87 466L175 463L262 527L349 472L436 528L524 493L611 472L698 520L785 537L873 533L960 488L960 541L873 541L785 541L698 541L611 541L524 541L436 541L349 541L262 541L175 541L87 541L0 541Z" fill="#dbd5ca"></path></svg>
