<svg id="visual" viewBox="0 0 960 540" width="960" height="180" preserveAspectRatio="none" xmlns="http://www.w3.org/2000/svg" xmlns:xlink="http://www.w3.org/1999/xlink" version="1.1"><rect x="0" y="0" width="960" height="540" fill="#B5C9C0"></rect><path d="M0 170L96 224L192 217L288 144L384 193L480 185L576 134L672 179L768 210L864 184L960 152L960 541L864 541L768 541L672 541L576 541L480 541L384 541L288 541L192 541L96 541L0 541Z" fill="#e8e6da"></path><path d="M0 216L96 220L192 174L288 215L384 226L480 175L576 171L672 210L768 243L864 175L960 245L960 541L864 541L768 541L672 541L576 541L480 541L384 541L288 541L192 541L96 541L0 541Z" fill="#e7e4d8"></path><path d="M0 234L96 211L192 221L288 223L384 275L480 240L576 267L672 246L768 223L864 206L960 271L960 541L864 541L768 541L672 541L576 541L480 541L384 541L288 541L192 541L96 541L0 541Z" fill="#e5e2d6"></path><path d="M0 317L96 253L192 321L288 269L384 291L480 270L576 273L672 272L768 320L864 317L960 279L960 541L864 541L768 541L672 541L576 541L480 541L384 541L288 541L192 541L96 541L0 541Z" fill="#e4e0d5"></path><path d="M0 323L96 353L192 325L288 347L384 333L480 295L576 284L672 350L768 336L864 309L960 315L960 541L864 541L768 541L672 541L576 541L480 541L384 541L288 541L192 541L96 541L0 541Z" fill="#e3ded3"></path><path d="M0 351L96 360L192 371L288 349L384 384L480 331L576 359L672 379L768 322L864 327L960 347L960 541L864 541L768 541L672 541L576 541L480 541L384 541L288 541L192 541L96 541L0 541Z" fill="#e1dcd1"></path><path d="M0 380L96 379L192 375L288 373L384 363L480 387L576 377L672 362L768 381L864 373L960 365L960 541L864 541L768 541L672 541L576 541L480 541L384 541L288 541L192 541L96 541L0 541Z" fill="#e0dacf"></path><path d="M0 408L96 444L192 424L288 417L384 440L480 447L576 441L672 411L768 434L864 438L960 448L960 541L864 541L768 541L672 541L576 541L480 541L384 541L288 541L192 541L96 541L0 541Z" fill="#ded9ce"></path><path d="M0 462L96 479L192 454L288 466L384 475L480 443L576 469L672 440L768 479L864 462L960 459L960 541L864 541L768 541L672 541L576 541L480 541L384 541L288 541L192 541L96 541L0 541Z" fill="#ddd7cc"></path><path d="M0 480L96 487L192 509L288 511L384 481L480 489L576 482L672 480L768 504L864 503L960 506L960 541L864 541L768 541L672 541L576 541L480 541L384 541L288 541L192 541L96 541L0 541Z" fill="#dbd5ca"></path></svg>
