<svg id="visual" viewBox="0 0 900 600" width="900" height="180" preserveAspectRatio="none" xmlns="http://www.w3.org/2000/svg" xmlns:xlink="http://www.w3.org/1999/xlink" version="1.1"><rect x="0" y="0" width="900" height="600" fill="#B5C9C0"></rect><path d="M0 262L129 236L257 197L386 264L514 276L643 257L771 222L900 248L900 601L771 601L643 601L514 601L386 601L257 601L129 601L0 601Z" fill="#ecebe4"></path><path d="M0 266L129 275L257 217L386 275L514 233L643 278L771 269L900 281L900 601L771 601L643 601L514 601L386 601L257 601L129 601L0 601Z" fill="#eae8e1"></path><path d="M0 306L129 315L257 318L386 310L514 264L643 292L771 333L900 318L900 601L771 601L643 601L514 601L386 601L257 601L129 601L0 601Z" fill="#e7e6dd"></path><path d="M0 373L129 309L257 329L386 359L514 328L643 315L771 344L900 384L900 601L771 601L643 601L514 601L386 601L257 601L129 601L0 601Z" fill="#e5e3da"></path><path d="M0 358L129 368L257 392L386 411L514 405L643 413L771 366L900 411L900 601L771 601L643 601L514 601L386 601L257 601L129 601L0 601Z" fill="#e3e0d7"></path><path d="M0 463L129 427L257 405L386 429L514 460L643 423L771 410L900 394L900 601L771 601L643 601L514 601L386 601L257 601L129 601L0 601Z" fill="#e1ddd4"></path><path d="M0 476L129 494L257 456L386 463L514 476L643 484L771 469L900 467L900 601L771 601L643 601L514 601L386 601L257 601L129 601L0 601Z" fill="#dfdbd0"></path><path d="M0 488L129 534L257 487L386 495L514 497L643 521L771 516L900 508L900 601L771 601L643 601L514 601L386 601L257 601L129 601L0 601Z" fill="#ddd8cd"></path><path d="M0 551L129 536L257 546L386 555L514 553L643 528L771 548L900 528L900 601L771 601L643 601L514 601L386 601L257 601L129 601L0 601Z" fill="#dbd5ca"></path></svg>
