<svg id="visual" viewBox="0 0 960 540" width="960" height="180" preserveAspectRatio="none" xmlns="http://www.w3.org/2000/svg" xmlns:xlink="http://www.w3.org/1999/xlink" version="1.1"><rect x="0" y="0" width="960" height="540" fill="#DBD5CA"></rect><path d="M0 130L96 204L192 167L288 213L384 212L480 192L576 214L672 223L768 173L864 159L960 197L960 541L864 541L768 541L672 541L576 541L480 541L384 541L288 541L192 541L96 541L0 541Z" fill="#e8e6da"></path><path d="M0 219L96 190L192 248L288 240L384 258L480 192L576 246L672 194L768 224L864 245L960 232L960 541L864 541L768 541L672 541L576 541L480 541L384 541L288 541L192 541L96 541L0 541Z" fill="#e3e3d6"></path><path d="M0 271L96 254L192 228L288 244L384 220L480 231L576 248L672 256L768 226L864 264L960 211L960 541L864 541L768 541L672 541L576 541L480 541L384 541L288 541L192 541L96 541L0 541Z" fill="#dde0d3"></path><path d="M0 264L96 260L192 292L288 305L384 286L480 263L576 314L672 281L768 307L864 271L960 246L960 541L864 541L768 541L672 541L576 541L480 541L384 541L288 541L192 541L96 541L0 541Z" fill="#d8ddcf"></path><path d="M0 325L96 333L192 320L288 291L384 307L480 342L576 337L672 338L768 322L864 329L960 339L960 541L864 541L768 541L672 541L576 541L480 541L384 541L288 541L192 541L96 541L0 541Z" fill="#d2dacc"></path><path d="M0 381L96 329L192 350L288 352L384 374L480 345L576 335L672 366L768 382L864 363L960 335L960 541L864 541L768 541L672 541L576 541L480 541L384 541L288 541L192 541L96 541L0 541Z" fill="#ccd6ca"></path><path d="M0 389L96 384L192 396L288 365L384 361L480 362L576 382L672 381L768 371L864 377L960 376L960 541L864 541L768 541L672 541L576 541L480 541L384 541L288 541L192 541L96 541L0 541Z" fill="#c6d3c7"></path><path d="M0 433L96 429L192 411L288 431L384 418L480 433L576 433L672 434L768 400L864 434L960 402L960 541L864 541L768 541L672 541L576 541L480 541L384 541L288 541L192 541L96 541L0 541Z" fill="#c0d0c4"></path><path d="M0 459L96 449L192 456L288 444L384 452L480 445L576 440L672 439L768 472L864 453L960 449L960 541L864 541L768 541L672 541L576 541L480 541L384 541L288 541L192 541L96 541L0 541Z" fill="#bbccc2"></path><path d="M0 481L96 501L192 486L288 510L384 512L480 481L576 505L672 491L768 488L864 489L960 504L960 541L864 541L768 541L672 541L576 541L480 541L384 541L288 541L192 541L96 541L0 541Z" fill="#b5c9c0"></path></svg>
