<?xml version="1.0" encoding="utf-8"?>
<!-- Generator: Adobe Illustrator 16.0.0, SVG Export Plug-In . SVG Version: 6.00 Build 0)  -->
<!DOCTYPE svg PUBLIC "-//W3C//DTD SVG 1.1//EN" "http://www.w3.org/Graphics/SVG/1.1/DTD/svg11.dtd">
<svg version="1.1" id="Calque_1" xmlns="http://www.w3.org/2000/svg" xmlns:xlink="http://www.w3.org/1999/xlink" x="0px" y="0px"
	 width="283.46px" height="283.46px" viewBox="0 0 283.46 283.46" enable-background="new 0 0 283.46 283.46" xml:space="preserve">
<g>
	<path fill="#82978D" d="M268.166,179.314c-3.557-32.978-22.291-55.096-53.686-66.176c-3.589-1.267-7.356-2.011-12.082-3.278
		c3.105-1.837,5.083-2.923,6.973-4.133c28.577-18.333,29.076-58.993,0.987-77.869c-10.863-7.302-23.068-10.399-35.885-10.502
		c-31.709-0.278-101.556,0.049-103.337,0.264c5.324,1.33,7.868,3.118,10.022,4.183c7.325,3.626,11.984,9.945,12.176,17.999
		c0.557,23.726,0.202,47.467,0.202,72.696c-9.163-4.489-17.55-7.956-25.29-12.514C48.972,88.633,33.636,74.872,34.951,51.779
		C37.697,32.876,57.627,21.42,57.627,21.42s-22.714,9.744-36.669,40.068c-12.298,26.719-4.941,49.478,17.261,65.563
		c5.318,3.863,10.628,7.886,16.436,10.865c19.116,9.787,38.422,19.209,57.74,28.598c12.841,6.237,25.707,12.738,34.448,24.283
		c5.657,7.476,10.534,16.064,13.489,24.918c3.232,9.688-2.213,18.242-10.452,27.06c30.322-17.128,39.705-59.194,21.003-85.405
		c-9.876-13.837-23.587-22.843-38.458-30.172c-4.569-2.255-6.149-4.685-6.11-9.737c0.247-29.678,0.111-59.354,0.143-89.032
		c0.003-2.408,0.3-4.816,0.491-7.691c16.989,0.237,33.259-1.427,48.673,5.36c16.477,7.252,26.201,19.578,27.577,37.716
		c1.404,18.708-8.696,30.589-24.43,38.335c-7.386,3.633-15.34,6.089-23.676,9.319c4.64,1.183,8.989,2.186,13.288,3.389
		c57.753,16.196,65.427,86.854,29.481,119.05c-18.947,16.977-41.182,27.527-63.889,31.528c19.927,0,35.471,0.266,59.424,0
		c14.143-0.159,31.932-6.842,43.66-14.796C262.351,233.482,271.293,208.364,268.166,179.314"/>
	<path fill="#82978D" d="M123.809,180.69c-9.67-5.045-19.554-9.695-30.224-14.887v97.863c-1.729-0.207-2.495-0.188-3.185-0.41
		c-13.822-4.397-24.48-12.348-31.559-25.502c-6.487-12.073-15.41-16.668-24.885-14.755c-10.92,2.207-18.455,11.938-17.389,22.461
		c1.194,11.789,9.583,19.878,22.111,19.975c24.847,0.188,49.705,0,74.551,0h12.921c0-27.108,0.034-53.529-0.102-79.643
		C126.046,184.04,125.118,181.381,123.809,180.69"/>
</g>
</svg>
